<svg width="153" height="38" viewBox="0 0 153 38" fill="none" xmlns="http://www.w3.org/2000/svg">
<ellipse cx="25.8086" cy="29.6168" rx="11.0297" ry="6.29711" transform="rotate(8.12087 25.8086 29.6168)" fill="#3B3232"/>
<circle cx="31.5613" cy="17.4722" r="14.0107" fill="#AEAAAA" stroke="black"/>
<ellipse cx="29.1364" cy="18.1763" rx="10.9906" ry="10.7559" fill="white"/>
<path d="M30.2345 19.5943C18.1158 15.5272 16.7533 18.1133 18.5828 11.9869C20.4123 5.86041 28.3258 1.84037 35.5076 3.98502C42.6894 6.12967 46.4888 12.7331 45.4639 19.2628C44.0037 25.6001 45.7931 22.6999 30.2345 19.5943Z" fill="#909690"/>
<line x1="17.9197" y1="14.6573" x2="44.5889" y2="22.0305" stroke="black" stroke-width="3"/>
<path d="M22.5 7.5L27 9.5" stroke="#FFFF00" stroke-width="3"/>
<line x1="38.1809" y1="13.5976" x2="45.3776" y2="16.0225" stroke="#FFFF00" stroke-width="3"/>
<path d="M28.8416 18.1587L26 8.5" stroke="#FFFF00" stroke-width="3"/>
<path d="M31.2816 17.4307L39.5001 13.5002" stroke="#FFFF00" stroke-width="3"/>
<circle cx="27.7916" cy="18.9972" r="4" fill="black" stroke="black" stroke-width="0.604747"/>
<circle cx="27.6088" cy="18.8432" r="2.64055" fill="white" stroke="black"/>
<circle cx="31.5613" cy="17.4722" r="13.0107" stroke="black" stroke-width="3"/>
<circle cx="27.5" cy="18.5" r="1.25" fill="white" stroke="black" stroke-width="0.5"/>
<path d="M40.8124 14.0312C40.0701 14.5631 39.6806 12.722 38.453 11.0087C37.2253 9.29532 35.6243 8.35848 36.3666 7.82659C37.109 7.2947 38.6798 8.61831 39.9075 10.3317C41.1351 12.045 41.5547 13.4993 40.8124 14.0312Z" fill="white"/>
<path d="M13.5 17V12.5H15.75V17H13.5ZM0 26V10.25H13.5V12.5H2.25V17H13.5V19.25H2.25V26H0ZM56.25 26V23.75H60.75V26H56.25ZM51.75 23.75V21.5H56.25V23.75H51.75ZM51.75 19.25V17H56.25V19.25H51.75ZM56.25 17V14.75H60.75V17H56.25ZM47.25 26V10.25H49.5V19.25H51.75V21.5H49.5V26H47.25ZM67.5 26V23.75H78.75V26H67.5ZM65.25 23.75V17H67.5V19.25H76.5V17H78.75V21.5H67.5V23.75H65.25ZM67.5 17V14.75H76.5V17H67.5ZM83.25 23.75V19.25H85.5V23.75H83.25ZM85.5 26V23.75H94.5V19.25H85.5V17H94.5V10.25H96.75V26H85.5ZM101.25 23.75V21.5H103.5V23.75H101.25ZM103.5 26V23.75H110.25V21.5H103.5V19.25H110.25V17H112.5V23.75H114.75V26H103.5ZM103.5 17V14.75H110.25V17H103.5ZM126 26V23.75H130.5V26H126ZM123.75 23.75V17H119.25V14.75H123.75V12.5H126V14.75H130.5V17H126V23.75H123.75ZM135 23.75V21.5H137.25V23.75H135ZM137.25 26V23.75H144V21.5H137.25V19.25H144V17H146.25V23.75H148.5V26H137.25ZM137.25 17V14.75H144V17H137.25Z" fill="white"/>
</svg>
