<svg width="256" height="277" viewBox="0 0 256 277" fill="none" xmlns="http://www.w3.org/2000/svg">
<ellipse rx="80.69" ry="46.4949" transform="matrix(0.989781 0.142599 -0.139937 0.99016 86.3717 218.718)" fill="#3B3232"/>
<path d="M234.085 129.032C234.085 187.943 186.786 235.693 128.449 235.693C70.1131 235.693 22.814 187.943 22.814 129.032C22.814 70.12 70.1131 22.3708 128.449 22.3708C186.786 22.3708 234.085 70.12 234.085 129.032Z" fill="#AEAAAA" stroke="black"/>
<ellipse cx="110.713" cy="134.231" rx="80.3883" ry="79.4319" fill="white"/>
<path d="M118.744 144.704C30.1048 114.669 20.1387 133.767 33.5201 88.5234C46.9016 43.28 104.784 13.5923 157.313 29.4304C209.843 45.2685 237.632 94.0345 230.136 142.256C219.456 189.056 232.544 167.638 118.744 144.704Z" fill="#909690"/>
<line y1="-2.5" x2="202.523" y2="-2.5" transform="matrix(0.963178 0.268863 -0.264103 0.964495 25.7476 118.922)" stroke="black" stroke-width="5"/>
<path d="M57.5873 55.5574L95.3199 68.7426" stroke="#FFFF00" stroke-width="10"/>
<path d="M167.751 103.019L227.859 120.987" stroke="#FFFF00" stroke-width="10"/>
<line y1="-5" x2="69.7212" y2="-5" transform="matrix(-0.210451 -0.977604 0.976757 -0.214351 112.715 128.654)" stroke="#FFFF00" stroke-width="10"/>
<path d="M122.804 125.647L174.298 102.54" stroke="#FFFF00" stroke-width="10"/>
<path d="M133.674 140.296C133.674 156.486 120.682 169.569 104.706 169.569C88.7292 169.569 75.7368 156.486 75.7368 140.296C75.7368 124.107 88.7292 111.024 104.706 111.024C120.682 111.024 133.674 124.107 133.674 140.296Z" fill="black" stroke="black" stroke-width="5"/>
<path d="M124.777 140.235C124.777 152.619 114.835 162.649 102.582 162.649C90.3283 162.649 80.3867 152.619 80.3867 140.235C80.3867 127.851 90.3283 117.821 102.582 117.821C114.835 117.821 124.777 127.851 124.777 140.235Z" fill="white" stroke="black"/>
<path d="M232.085 129.032C232.085 186.857 185.663 233.693 128.449 233.693C71.2357 233.693 24.814 186.857 24.814 129.032C24.814 71.2064 71.2357 24.3708 128.449 24.3708C185.663 24.3708 232.085 71.2064 232.085 129.032Z" stroke="black" stroke-width="5"/>
<path d="M117.437 140.297C117.437 148.687 110.703 155.472 102.417 155.472C94.1304 155.472 87.3965 148.687 87.3965 140.297C87.3965 131.907 94.1304 125.122 102.417 125.122C110.703 125.122 117.437 131.907 117.437 140.297Z" fill="white" stroke="black" stroke-width="2"/>
<path d="M208.564 98.6361C203.134 102.564 200.286 88.968 191.306 76.315C182.327 63.662 170.617 56.7434 176.047 52.8155C181.476 48.8875 192.966 58.6623 201.945 71.3153C210.924 83.9683 213.993 94.7082 208.564 98.6361Z" fill="white"/>
</svg>
